<?xml version="1.0" encoding="utf-8"?>
<!-- Generator: Adobe Illustrator 16.0.0, SVG Export Plug-In . SVG Version: 6.00 Build 0)  -->
<!DOCTYPE svg PUBLIC "-//W3C//DTD SVG 1.1//EN" "http://www.w3.org/Graphics/SVG/1.1/DTD/svg11.dtd">
<svg version="1.1" id="Layer_1" xmlns="http://www.w3.org/2000/svg" xmlns:xlink="http://www.w3.org/1999/xlink" x="0px" y="0px"
	 width="127.746px" height="26.85px" viewBox="0 0 127.746 26.85" enable-background="new 0 0 127.746 26.85" xml:space="preserve">
<g>
	<g>
		<path d="M31.413,1.73c-0.363-0.374-0.813-0.565-1.328-0.565H5.002c-0.516,0-0.973,0.185-1.344,0.565
			C3.294,2.107,3.111,2.568,3.111,3.104v7.275h1.735V5.757l12.065,9.45c0.17,0.175,0.375,0.252,0.609,0.252h0.063
			c0.234,0,0.439-0.077,0.609-0.252l12.065-9.45v17.517c0,0.064-0.095,0.158-0.173,0.158h-9.174v1.751h9.174
			c0.516,0,0.953-0.188,1.328-0.569c0.376-0.377,0.563-0.818,0.563-1.34V3.104C31.977,2.568,31.784,2.114,31.413,1.73z
			 M30.258,3.262L17.552,13.361L4.846,3.262V3.104c0-0.078,0.094-0.188,0.156-0.188h25.083c0.109,0,0.173,0.064,0.173,0.188V3.262z
			 M19.005,22.785c-0.172-0.269-0.352-0.596-1.031-1.438c-0.695-0.861-1.416-1.612-2.704-2.619
			c-1.276-0.996-2.597-1.794-4.548-2.508c-0.971-0.357-1.985-0.65-3.032-0.838v-3.061c0-0.394-0.187-0.667-0.547-0.804
			c-0.375-0.145-0.672-0.064-0.922,0.188l-5.955,6.013c-0.359,0.363-0.36,0.869,0,1.229l5.955,5.982
			c0.172,0.172,0.359,0.253,0.594,0.253c0.093,0,0.203-0.017,0.328-0.064C7.502,24.93,7.69,24.66,7.69,24.314v-2.983h0.578
			c1.297,0,2.626,0.158,3.954,0.458c2.079,0.471,3.855,1.322,5.548,2.178l0.031,0.018c0.313,0.205,0.777,0.172,1.063-0.095
			c0.324-0.303,0.354-0.677,0.156-1.074L19.005,22.785z M8.268,19.598c-0.688,0-1.203,0.02-1.547,0.061
			c-0.421,0.054-0.766,0.41-0.766,0.868v1.69L2.08,18.335l3.875-3.915v1.72c0,0.458,0.312,0.812,0.735,0.868
			c3.109,0.432,5.876,1.674,8.298,3.741C12.753,19.975,10.503,19.598,8.268,19.598z"/>
	</g>
</g>
<g>
	<path d="M47.333,24.183h-0.867v-4.991c0-0.395,0.024-0.877,0.073-1.447h-0.021c-0.083,0.336-0.157,0.576-0.223,0.721l-2.542,5.718
		h-0.426l-2.536-5.676c-0.073-0.166-0.147-0.42-0.224-0.763h-0.021c0.027,0.298,0.041,0.783,0.041,1.458v4.98h-0.84v-7.439h1.151
		l2.283,5.188c0.176,0.396,0.29,0.695,0.342,0.892h0.031c0.148-0.407,0.268-0.712,0.358-0.913l2.329-5.167h1.09V24.183z"/>
	<path d="M54.252,24.183h-0.851v-0.83H53.38c-0.37,0.636-0.914,0.954-1.634,0.954c-0.529,0-0.943-0.14-1.242-0.42
		c-0.3-0.279-0.449-0.652-0.449-1.115c0-0.992,0.585-1.57,1.754-1.732l1.593-0.224c0-0.902-0.365-1.354-1.095-1.354
		c-0.641,0-1.218,0.219-1.733,0.654v-0.871c0.522-0.332,1.124-0.498,1.806-0.498c1.249,0,1.873,0.66,1.873,1.981V24.183z
		 M53.401,21.495l-1.282,0.177c-0.394,0.055-0.691,0.152-0.892,0.293c-0.201,0.141-0.301,0.389-0.301,0.744
		c0,0.26,0.092,0.472,0.277,0.636c0.185,0.165,0.432,0.247,0.739,0.247c0.422,0,0.771-0.148,1.045-0.444
		c0.275-0.296,0.413-0.67,0.413-1.123V21.495z"/>
	<path d="M57.565,17.521c-0.152,0-0.282-0.053-0.389-0.156c-0.107-0.104-0.161-0.234-0.161-0.395c0-0.158,0.054-0.291,0.161-0.396
		c0.106-0.105,0.236-0.158,0.389-0.158c0.155,0,0.288,0.053,0.397,0.158c0.108,0.105,0.163,0.238,0.163,0.396
		c0,0.152-0.055,0.283-0.163,0.39C57.854,17.468,57.721,17.521,57.565,17.521z M57.98,24.183H57.13V18.87h0.851V24.183z"/>
	<path d="M61.829,24.183h-0.851v-7.864h0.851V24.183z"/>
	<path d="M65.262,17.521c-0.152,0-0.282-0.053-0.389-0.156c-0.107-0.104-0.161-0.234-0.161-0.395c0-0.158,0.054-0.291,0.161-0.396
		c0.106-0.105,0.236-0.158,0.389-0.158c0.155,0,0.288,0.053,0.397,0.158c0.108,0.105,0.163,0.238,0.163,0.396
		c0,0.152-0.055,0.283-0.163,0.39C65.55,17.468,65.417,17.521,65.262,17.521z M65.677,24.183h-0.851V18.87h0.851V24.183z"/>
	<path d="M73.084,24.183h-0.851v-3.03c0-1.127-0.411-1.691-1.234-1.691c-0.426,0-0.777,0.16-1.056,0.48s-0.418,0.724-0.418,1.211
		v3.03h-0.851V18.87h0.851v0.882h0.021c0.401-0.671,0.982-1.006,1.743-1.006c0.581,0,1.025,0.188,1.334,0.563
		c0.308,0.375,0.461,0.918,0.461,1.627V24.183z"/>
	<path d="M80.497,23.758c0,1.95-0.934,2.926-2.802,2.926c-0.657,0-1.231-0.125-1.723-0.374v-0.851
		c0.599,0.332,1.17,0.498,1.713,0.498c1.307,0,1.961-0.695,1.961-2.086v-0.58h-0.021c-0.404,0.678-1.013,1.016-1.826,1.016
		c-0.66,0-1.192-0.235-1.595-0.707c-0.403-0.473-0.604-1.106-0.604-1.902c0-0.902,0.217-1.62,0.651-2.152
		c0.434-0.533,1.027-0.799,1.782-0.799c0.716,0,1.246,0.287,1.592,0.861h0.021V18.87h0.851V23.758z M79.646,21.781v-0.784
		c0-0.422-0.143-0.783-0.429-1.084c-0.285-0.302-0.641-0.452-1.065-0.452c-0.526,0-0.938,0.191-1.235,0.574
		c-0.297,0.382-0.446,0.917-0.446,1.605c0,0.592,0.144,1.064,0.429,1.419s0.663,0.532,1.134,0.532c0.477,0,0.865-0.17,1.164-0.509
		S79.646,22.31,79.646,21.781z"/>
	<path d="M87.446,23.882v-1.027c0.117,0.104,0.259,0.197,0.423,0.28s0.337,0.152,0.519,0.21s0.364,0.101,0.547,0.132
		c0.184,0.031,0.354,0.047,0.509,0.047c0.536,0,0.937-0.1,1.201-0.298c0.265-0.199,0.396-0.485,0.396-0.858
		c0-0.201-0.044-0.375-0.132-0.524c-0.088-0.148-0.21-0.284-0.366-0.407c-0.155-0.123-0.34-0.24-0.552-0.353
		c-0.213-0.112-0.442-0.231-0.688-0.355c-0.26-0.132-0.502-0.265-0.727-0.399s-0.42-0.283-0.586-0.446s-0.297-0.347-0.392-0.553
		c-0.096-0.206-0.144-0.446-0.144-0.724c0-0.339,0.075-0.634,0.224-0.885c0.148-0.25,0.344-0.457,0.586-0.619
		c0.242-0.163,0.518-0.284,0.828-0.363c0.309-0.08,0.625-0.119,0.946-0.119c0.733,0,1.268,0.088,1.604,0.264v0.98
		c-0.439-0.304-1.004-0.456-1.691-0.456c-0.19,0-0.381,0.021-0.571,0.06c-0.189,0.04-0.359,0.104-0.508,0.195
		c-0.149,0.09-0.271,0.205-0.363,0.347c-0.094,0.142-0.141,0.315-0.141,0.519c0,0.191,0.036,0.355,0.106,0.493
		c0.071,0.139,0.176,0.265,0.314,0.379c0.138,0.114,0.307,0.225,0.506,0.332c0.198,0.106,0.428,0.225,0.688,0.353
		c0.266,0.132,0.519,0.27,0.757,0.415c0.239,0.146,0.448,0.306,0.628,0.482s0.322,0.372,0.428,0.587
		c0.105,0.214,0.158,0.459,0.158,0.736c0,0.367-0.071,0.677-0.215,0.932c-0.144,0.254-0.337,0.461-0.581,0.619
		c-0.244,0.16-0.525,0.274-0.843,0.346c-0.318,0.07-0.654,0.105-1.007,0.105c-0.117,0-0.263-0.01-0.436-0.027
		c-0.173-0.02-0.35-0.047-0.529-0.084c-0.18-0.036-0.351-0.081-0.511-0.135C87.672,24.008,87.543,23.947,87.446,23.882z"/>
	<path d="M98.583,18.87l-2.443,6.163c-0.436,1.1-1.048,1.65-1.836,1.65c-0.222,0-0.406-0.023-0.556-0.068v-0.762
		c0.184,0.063,0.352,0.093,0.504,0.093c0.429,0,0.75-0.256,0.965-0.768l0.425-1.007l-2.075-5.302h0.944l1.438,4.089
		c0.017,0.051,0.054,0.186,0.108,0.404h0.031c0.018-0.084,0.052-0.215,0.104-0.395l1.51-4.099H98.583z"/>
	<path d="M100.449,23.99v-0.912c0.464,0.342,0.974,0.514,1.531,0.514c0.747,0,1.12-0.25,1.12-0.748c0-0.142-0.032-0.262-0.096-0.36
		c-0.064-0.099-0.15-0.186-0.26-0.262c-0.108-0.076-0.236-0.145-0.384-0.205c-0.146-0.061-0.305-0.124-0.475-0.189
		c-0.235-0.093-0.441-0.188-0.62-0.282c-0.178-0.096-0.326-0.203-0.446-0.322c-0.119-0.119-0.209-0.255-0.27-0.407
		c-0.061-0.151-0.091-0.33-0.091-0.534c0-0.249,0.058-0.469,0.171-0.662c0.114-0.191,0.267-0.352,0.457-0.482
		c0.19-0.129,0.407-0.227,0.651-0.293c0.243-0.064,0.495-0.098,0.755-0.098c0.46,0,0.871,0.079,1.234,0.238v0.861
		c-0.391-0.256-0.841-0.385-1.349-0.385c-0.159,0-0.303,0.02-0.431,0.055c-0.128,0.037-0.238,0.088-0.33,0.153
		c-0.091,0.065-0.162,0.145-0.212,0.236c-0.051,0.092-0.075,0.192-0.075,0.304c0,0.139,0.024,0.254,0.075,0.348
		c0.05,0.093,0.123,0.176,0.22,0.248c0.098,0.073,0.215,0.139,0.354,0.197c0.138,0.059,0.295,0.123,0.472,0.192
		c0.235,0.09,0.446,0.183,0.633,0.278c0.187,0.094,0.346,0.201,0.478,0.32c0.132,0.12,0.232,0.258,0.304,0.413
		c0.07,0.155,0.106,0.341,0.106,0.556c0,0.262-0.059,0.49-0.174,0.684c-0.116,0.194-0.271,0.355-0.465,0.482
		c-0.193,0.129-0.417,0.224-0.669,0.286c-0.253,0.062-0.518,0.093-0.794,0.093C101.324,24.307,100.851,24.201,100.449,23.99z"/>
	<path d="M109.019,24.131c-0.2,0.11-0.465,0.166-0.794,0.166c-0.93,0-1.396-0.52-1.396-1.557v-3.144h-0.913V18.87h0.913v-1.297
		l0.852-0.274v1.571h1.338v0.727h-1.338v2.993c0,0.356,0.061,0.61,0.182,0.763s0.321,0.229,0.602,0.229
		c0.214,0,0.399-0.06,0.555-0.177V24.131z"/>
	<path d="M115.616,21.739h-3.751c0.014,0.591,0.173,1.048,0.478,1.37c0.304,0.32,0.723,0.482,1.255,0.482
		c0.599,0,1.148-0.197,1.65-0.592v0.799c-0.467,0.339-1.084,0.508-1.853,0.508c-0.75,0-1.34-0.24-1.769-0.723
		s-0.644-1.162-0.644-2.037c0-0.826,0.234-1.5,0.703-2.021s1.051-0.78,1.745-0.78c0.695,0,1.233,0.225,1.614,0.674
		c0.38,0.449,0.57,1.074,0.57,1.873V21.739z M114.745,21.018c-0.004-0.49-0.122-0.873-0.355-1.146s-0.558-0.41-0.973-0.41
		c-0.401,0-0.742,0.145-1.022,0.432s-0.453,0.662-0.519,1.125H114.745z"/>
	<path d="M125.722,24.183h-0.851v-3.05c0-0.589-0.091-1.014-0.272-1.277c-0.182-0.262-0.487-0.395-0.916-0.395
		c-0.363,0-0.672,0.166-0.926,0.498s-0.381,0.73-0.381,1.193v3.03h-0.852v-3.154c0-1.044-0.402-1.567-1.208-1.567
		c-0.374,0-0.682,0.157-0.924,0.471c-0.242,0.313-0.363,0.72-0.363,1.221v3.03h-0.851V18.87h0.851v0.841h0.021
		c0.377-0.644,0.927-0.965,1.65-0.965c0.363,0,0.68,0.101,0.949,0.303c0.27,0.203,0.455,0.469,0.555,0.797
		c0.395-0.733,0.982-1.1,1.765-1.1c1.169,0,1.753,0.721,1.753,2.163V24.183z"/>
</g>
<g>
	<path d="M46.913,9.946h-2.011l-0.583-1.822h-2.913l-0.577,1.822h-2l2.982-8.192H44L46.913,9.946z M43.896,6.707l-0.879-2.753
		c-0.065-0.206-0.111-0.452-0.138-0.737h-0.046c-0.019,0.24-0.066,0.478-0.143,0.714L41.8,6.707H43.896z"/>
	<path d="M55.351,6.398c0,2.46-1.146,3.69-3.439,3.69c-2.224,0-3.336-1.201-3.336-3.604v-4.73h1.851v4.753
		c0,1.325,0.519,1.988,1.555,1.988c1.017,0,1.524-0.64,1.524-1.919V1.754h1.846V6.398z"/>
	<path d="M63.821,3.256h-2.336v6.69h-1.852v-6.69h-2.325V1.754h6.513V3.256z"/>
	<path d="M68.888,10.089c-1.173,0-2.129-0.381-2.867-1.145c-0.739-0.764-1.108-1.759-1.108-2.985c0-1.294,0.375-2.342,1.125-3.142
		c0.751-0.8,1.745-1.2,2.982-1.2c1.169,0,2.114,0.383,2.837,1.148c0.722,0.766,1.082,1.775,1.082,3.028
		c0,1.288-0.374,2.325-1.122,3.114C71.067,9.695,70.092,10.089,68.888,10.089z M68.968,3.205c-0.647,0-1.161,0.243-1.542,0.729
		c-0.381,0.485-0.571,1.128-0.571,1.928c0,0.812,0.19,1.453,0.571,1.925c0.381,0.473,0.88,0.708,1.497,0.708
		c0.636,0,1.141-0.229,1.514-0.688c0.373-0.458,0.56-1.096,0.56-1.911c0-0.85-0.181-1.51-0.543-1.982
		C70.092,3.441,69.597,3.205,68.968,3.205z"/>
	<path d="M84.568,9.946h-1.822V5.044c0-0.529,0.023-1.114,0.068-1.753H82.77c-0.096,0.502-0.182,0.864-0.258,1.085l-1.919,5.57
		h-1.509l-1.953-5.513c-0.054-0.149-0.14-0.53-0.258-1.143h-0.051c0.049,0.807,0.074,1.516,0.074,2.125v4.53h-1.663V1.754h2.702
		l1.674,4.856c0.134,0.389,0.23,0.779,0.292,1.171h0.034c0.103-0.453,0.211-0.848,0.325-1.183l1.674-4.845h2.634V9.946z"/>
	<path d="M94.571,9.946h-2.011l-0.583-1.822h-2.913l-0.577,1.822h-2l2.982-8.192h2.188L94.571,9.946z M91.555,6.707l-0.879-2.753
		c-0.065-0.206-0.111-0.452-0.138-0.737h-0.046c-0.019,0.24-0.066,0.478-0.143,0.714l-0.892,2.776H91.555z"/>
	<path d="M101.466,3.256H99.13v6.69h-1.852v-6.69h-2.325V1.754h6.513V3.256z"/>
	<path d="M106.035,1.754v1.428h-0.686v5.336h0.686v1.428h-3.217V8.518h0.686V3.182h-0.686V1.754H106.035z"/>
	<path d="M111.609,10.089c-1.173,0-2.129-0.381-2.867-1.145c-0.739-0.764-1.108-1.759-1.108-2.985c0-1.294,0.375-2.342,1.125-3.142
		c0.751-0.8,1.745-1.2,2.982-1.2c1.169,0,2.114,0.383,2.837,1.148c0.722,0.766,1.082,1.775,1.082,3.028
		c0,1.288-0.374,2.325-1.122,3.114C113.789,9.695,112.813,10.089,111.609,10.089z M111.689,3.205c-0.647,0-1.161,0.243-1.542,0.729
		c-0.381,0.485-0.571,1.128-0.571,1.928c0,0.812,0.19,1.453,0.571,1.925c0.381,0.473,0.88,0.708,1.497,0.708
		c0.636,0,1.141-0.229,1.514-0.688c0.373-0.458,0.56-1.096,0.56-1.911c0-0.85-0.181-1.51-0.543-1.982
		C112.813,3.441,112.318,3.205,111.689,3.205z"/>
	<path d="M125.326,9.946h-1.862l-3.377-5.147c-0.197-0.301-0.335-0.527-0.411-0.68h-0.022c0.03,0.29,0.046,0.731,0.046,1.325v4.502
		h-1.743V1.754h1.988l3.251,4.987c0.148,0.225,0.285,0.448,0.411,0.668h0.022c-0.03-0.19-0.045-0.565-0.045-1.125v-4.53h1.742V9.946
		z"/>
</g>
</svg>
